<svg width="200" height="200" xmlns="http://www.w3.org/2000/svg">
  <defs>
    <pattern id="qrPattern" x="0" y="0" width="20" height="20" patternUnits="userSpaceOnUse">
      <rect x="0" y="0" width="20" height="20" fill="white"/>
      <rect x="0" y="0" width="2" height="2" fill="black"/>
      <rect x="4" y="0" width="2" height="2" fill="black"/>
      <rect x="8" y="0" width="2" height="2" fill="black"/>
      <rect x="12" y="0" width="2" height="2" fill="black"/>
      <rect x="16" y="0" width="2" height="2" fill="black"/>
      <rect x="0" y="4" width="2" height="2" fill="black"/>
      <rect x="8" y="4" width="2" height="2" fill="black"/>
      <rect x="16" y="4" width="2" height="2" fill="black"/>
      <rect x="0" y="8" width="2" height="2" fill="black"/>
      <rect x="4" y="8" width="2" height="2" fill="black"/>
      <rect x="6" y="8" width="2" height="2" fill="black"/>
      <rect x="8" y="8" width="2" height="2" fill="black"/>
      <rect x="10" y="8" width="2" height="2" fill="black"/>
      <rect x="12" y="8" width="2" height="2" fill="black"/>
      <rect x="14" y="8" width="2" height="2" fill="black"/>
      <rect x="16" y="8" width="2" height="2" fill="black"/>
      <rect x="18" y="8" width="2" height="2" fill="black"/>
      <rect x="0" y="12" width="2" height="2" fill="black"/>
      <rect x="8" y="12" width="2" height="2" fill="black"/>
      <rect x="16" y="12" width="2" height="2" fill="black"/>
      <rect x="0" y="16" width="2" height="2" fill="black"/>
      <rect x="4" y="16" width="2" height="2" fill="black"/>
      <rect x="8" y="16" width="2" height="2" fill="black"/>
      <rect x="12" y="16" width="2" height="2" fill="black"/>
      <rect x="16" y="16" width="2" height="2" fill="black"/>
    </pattern>
  </defs>
  
  <!-- QR Code background -->
  <rect x="10" y="10" width="180" height="180" fill="white" stroke="black" stroke-width="2"/>
  <rect x="10" y="10" width="180" height="180" fill="url(#qrPattern)" opacity="0.3"/>
  
  <!-- Corner squares -->
  <rect x="20" y="20" width="60" height="60" fill="none" stroke="black" stroke-width="4"/>
  <rect x="30" y="30" width="40" height="40" fill="black"/>
  <rect x="40" y="40" width="20" height="20" fill="white"/>
  
  <rect x="120" y="20" width="60" height="60" fill="none" stroke="black" stroke-width="4"/>
  <rect x="130" y="30" width="40" height="40" fill="black"/>
  <rect x="140" y="40" width="20" height="20" fill="white"/>
  
  <rect x="20" y="120" width="60" height="60" fill="none" stroke="black" stroke-width="4"/>
  <rect x="30" y="130" width="40" height="40" fill="black"/>
  <rect x="40" y="140" width="20" height="20" fill="white"/>
  
  <!-- Random data squares -->
  <rect x="90" y="30" width="8" height="8" fill="black"/>
  <rect x="102" y="30" width="8" height="8" fill="black"/>
  <rect x="114" y="30" width="8" height="8" fill="black"/>
  <rect x="90" y="42" width="8" height="8" fill="black"/>
  <rect x="114" y="42" width="8" height="8" fill="black"/>
  <rect x="90" y="54" width="8" height="8" fill="black"/>
  <rect x="102" y="54" width="8" height="8" fill="black"/>
  <rect x="114" y="54" width="8" height="8" fill="black"/>
  
  <rect x="30" y="90" width="8" height="8" fill="black"/>
  <rect x="42" y="90" width="8" height="8" fill="black"/>
  <rect x="54" y="90" width="8" height="8" fill="black"/>
  <rect x="30" y="102" width="8" height="8" fill="black"/>
  <rect x="54" y="102" width="8" height="8" fill="black"/>
  <rect x="30" y="114" width="8" height="8" fill="black"/>
  <rect x="42" y="114" width="8" height="8" fill="black"/>
  <rect x="54" y="114" width="8" height="8" fill="black"/>
  
  <rect x="90" y="90" width="8" height="8" fill="black"/>
  <rect x="102" y="90" width="8" height="8" fill="black"/>
  <rect x="114" y="90" width="8" height="8" fill="black"/>
  <rect x="90" y="102" width="8" height="8" fill="black"/>
  <rect x="114" y="102" width="8" height="8" fill="black"/>
  <rect x="90" y="114" width="8" height="8" fill="black"/>
  <rect x="102" y="114" width="8" height="8" fill="black"/>
  <rect x="114" y="114" width="8" height="8" fill="black"/>
  
  <rect x="130" y="90" width="8" height="8" fill="black"/>
  <rect x="142" y="90" width="8" height="8" fill="black"/>
  <rect x="154" y="90" width="8" height="8" fill="black"/>
  <rect x="130" y="102" width="8" height="8" fill="black"/>
  <rect x="154" y="102" width="8" height="8" fill="black"/>
  <rect x="130" y="114" width="8" height="8" fill="black"/>
  <rect x="142" y="114" width="8" height="8" fill="black"/>
  <rect x="154" y="114" width="8" height="8" fill="black"/>
  
  <rect x="90" y="130" width="8" height="8" fill="black"/>
  <rect x="102" y="130" width="8" height="8" fill="black"/>
  <rect x="114" y="130" width="8" height="8" fill="black"/>
  <rect x="90" y="142" width="8" height="8" fill="black"/>
  <rect x="114" y="142" width="8" height="8" fill="black"/>
  <rect x="90" y="154" width="8" height="8" fill="black"/>
  <rect x="102" y="154" width="8" height="8" fill="black"/>
  <rect x="114" y="154" width="8" height="8" fill="black"/>
</svg>
